<?xml version="1.0" standalone="no"?>
<!DOCTYPE svg PUBLIC "-//W3C//DTD SVG 20010904//EN"
 "http://www.w3.org/TR/2001/REC-SVG-20010904/DTD/svg10.dtd">
<svg version="1.0" xmlns="http://www.w3.org/2000/svg"
 width="700.000000pt" height="700.000000pt" viewBox="0 0 700.000000 700.000000"
 preserveAspectRatio="xMidYMid meet">
<metadata>
Created by potrace 1.11, written by Peter Selinger 2001-2013
</metadata>
<g transform="translate(0.000000,700.000000) scale(0.100000,-0.100000)"
fill="#000000" stroke="none">
<path d="M3278 6995 c-2 -1 -41 -5 -88 -9 -47 -4 -96 -8 -110 -10 -14 -2 -46
-7 -71 -10 -25 -4 -57 -9 -70 -11 -13 -2 -42 -6 -64 -10 -22 -3 -47 -7 -55
-10 -8 -2 -27 -6 -42 -9 -275 -47 -762 -233 -1014 -386 -37 -22 -68 -40 -71
-40 -15 0 -318 -212 -393 -276 -300 -254 -499 -471 -703 -766 -26 -38 -47 -70
-47 -72 0 -3 -13 -24 -29 -48 -115 -174 -266 -498 -348 -748 -69 -213 -132
-498 -149 -675 -2 -22 -7 -76 -11 -120 -15 -152 -8 -601 12 -703 1 -9 6 -42 9
-72 7 -62 12 -94 26 -165 6 -27 12 -60 14 -71 21 -107 98 -386 125 -449 5 -11
28 -69 51 -130 45 -116 153 -340 222 -459 40 -68 185 -289 213 -324 7 -9 51
-64 96 -122 151 -191 423 -451 642 -614 180 -134 486 -311 677 -391 112 -47
124 -52 175 -70 28 -10 64 -23 80 -30 89 -39 459 -130 605 -150 8 -1 35 -5 60
-8 172 -24 274 -30 500 -30 375 0 758 63 1093 180 336 117 585 241 862 431
181 124 428 332 545 459 74 81 184 207 210 243 14 18 30 38 35 44 15 15 165
224 165 230 0 2 17 30 39 62 63 96 169 294 221 414 18 41 38 89 46 105 14 32
93 250 99 275 2 8 18 65 35 125 18 61 42 162 55 225 22 110 28 146 41 243 3
23 7 56 9 72 32 216 21 682 -20 920 -3 17 -10 59 -16 95 -9 52 -35 168 -64
290 -20 81 -77 249 -136 397 -92 235 -288 588 -413 744 -12 15 -30 39 -41 55
-11 15 -31 41 -45 58 -14 17 -34 42 -45 55 -105 129 -297 324 -435 442 -300
256 -628 448 -1045 612 -158 62 -473 145 -660 173 -27 4 -52 8 -55 9 -3 1 -41
5 -85 10 -44 4 -89 10 -100 12 -25 4 -532 12 -537 8z"/>
</g>
</svg>
