<svg xmlns="http://www.w3.org/2000/svg" width="30.889" height="30.895" viewBox="0 0 30.889 30.895">
  <g id="ico-instagram" transform="translate(0)">
    <path id="Trazado_287" data-name="Trazado 287" d="M111.82,660.167a11.326,11.326,0,0,0-.719-3.747,7.517,7.517,0,0,0-1.786-2.741,7.634,7.634,0,0,0-2.734-1.78,11.318,11.318,0,0,0-3.749-.718c-1.653-.079-2.179-.1-6.374-.1s-4.719.017-6.366.09a11.289,11.289,0,0,0-3.749.718,7.92,7.92,0,0,0-4.522,4.52,11.327,11.327,0,0,0-.718,3.749c-.077,1.655-.1,2.179-.1,6.374s.018,4.719.09,6.368a11.285,11.285,0,0,0,.718,3.747,7.916,7.916,0,0,0,4.522,4.522,11.3,11.3,0,0,0,3.747.718c1.647.072,2.173.09,6.368.09s4.719-.018,6.368-.09a11.284,11.284,0,0,0,3.747-.718,7.9,7.9,0,0,0,4.522-4.522,11.315,11.315,0,0,0,.718-3.747c.072-1.649.09-2.173.09-6.368S111.892,661.816,111.82,660.167Zm-2.784,12.615a8.5,8.5,0,0,1-.529,2.867,5.125,5.125,0,0,1-2.935,2.933,8.468,8.468,0,0,1-2.867.531c-1.629.072-2.118.09-6.239.09s-4.618-.018-6.241-.09a8.436,8.436,0,0,1-2.867-.531,4.737,4.737,0,0,1-1.775-1.153,4.786,4.786,0,0,1-1.153-1.773,8.489,8.489,0,0,1-.531-2.867c-.072-1.631-.09-2.12-.09-6.241s.018-4.617.09-6.241a8.435,8.435,0,0,1,.531-2.867,4.683,4.683,0,0,1,1.159-1.775,4.8,4.8,0,0,1,1.775-1.153,8.467,8.467,0,0,1,2.867-.531c1.629-.072,2.118-.09,6.241-.09s4.618.018,6.241.09a8.446,8.446,0,0,1,2.867.531,5.095,5.095,0,0,1,2.928,2.928,8.528,8.528,0,0,1,.529,2.867c.074,1.629.092,2.118.092,6.241S109.11,671.153,109.036,672.782Z" transform="translate(-81.008 -651.085)" fill="#fff"/>
    <path id="Trazado_288" data-name="Trazado 288" d="M93.017,655.158a7.936,7.936,0,1,0,7.936,7.936A7.938,7.938,0,0,0,93.017,655.158Zm0,13.085a5.149,5.149,0,1,1,5.149-5.149A5.15,5.15,0,0,1,93.017,668.243Z" transform="translate(-77.567 -647.644)" fill="#fff"/>
    <path id="Trazado_289" data-name="Trazado 289" d="M96.557,655.837a1.853,1.853,0,1,1-1.852-1.854A1.853,1.853,0,0,1,96.557,655.837Z" transform="translate(-71.003 -648.637)" fill="#fff"/>
  </g>
</svg>
