<svg xmlns="http://www.w3.org/2000/svg" width="30.895" height="30.895" viewBox="0 0 30.895 30.895">
  <g id="ico-facebook" transform="translate(0)">
    <path id="Trazado_290" data-name="Trazado 290" d="M119.576,659.441c-.144.022-.29.044-.435.065C119.287,659.485,119.432,659.463,119.576,659.441Z" transform="translate(-95.638 -644.026)" fill="#fff"/>
    <path id="Trazado_291" data-name="Trazado 291" d="M119.66,659.449l-.207.035Z" transform="translate(-95.375 -644.019)" fill="#fff"/>
    <path id="Trazado_292" data-name="Trazado 292" d="M119.165,659.445c-.17.019-.339.035-.511.05C118.826,659.48,119,659.464,119.165,659.445Z" transform="translate(-96.05 -644.022)" fill="#fff"/>
    <path id="Trazado_293" data-name="Trazado 293" d="M119.224,659.45l-.245.031Z" transform="translate(-95.775 -644.018)" fill="#fff"/>
    <path id="Trazado_294" data-name="Trazado 294" d="M119.9,659.448l-.183.039Z" transform="translate(-95.147 -644.02)" fill="#fff"/>
    <path id="Trazado_295" data-name="Trazado 295" d="M120.525,659.447l-.148.04Z" transform="translate(-94.594 -644.021)" fill="#fff"/>
    <path id="Trazado_296" data-name="Trazado 296" d="M120.339,659.447l-.162.042Z" transform="translate(-94.763 -644.021)" fill="#fff"/>
    <path id="Trazado_297" data-name="Trazado 297" d="M120.092,659.448l-.172.039Z" transform="translate(-94.98 -644.02)" fill="#fff"/>
    <path id="Trazado_298" data-name="Trazado 298" d="M118.777,659.453c-.09.007-.183.015-.275.02C118.594,659.468,118.686,659.46,118.777,659.453Z" transform="translate(-96.178 -644.016)" fill="#fff"/>
    <path id="Trazado_299" data-name="Trazado 299" d="M137.3,666.531a15.447,15.447,0,1,0-15.448,15.448c.092,0,.183,0,.273,0V669.952H118.8v-3.869h3.319v-2.847c0-3.3,2.015-5.1,4.959-5.1a27.642,27.642,0,0,1,2.976.151v3.45h-2.031c-1.6,0-1.911.762-1.911,1.88v2.463h3.83l-.5,3.869h-3.332v11.432A15.457,15.457,0,0,0,137.3,666.531Z" transform="translate(-106.401 -651.085)" fill="#fff"/>
    <path id="Trazado_300" data-name="Trazado 300" d="M118.731,659.451c-.181.011-.363.02-.544.028C118.368,659.471,118.55,659.462,118.731,659.451Z" transform="translate(-96.444 -644.017)" fill="#fff"/>
    <path id="Trazado_301" data-name="Trazado 301" d="M118.314,659.456c-.1,0-.192.005-.288.007C118.122,659.461,118.218,659.46,118.314,659.456Z" transform="translate(-96.581 -644.013)" fill="#fff"/>
  </g>
</svg>
