<svg xmlns="http://www.w3.org/2000/svg" width="219.708" height="87.749" viewBox="0 0 219.708 87.749">
  <g id="logo-unique-blanco" transform="translate(-560 -420.824)">
    <path id="Trazado_1" data-name="Trazado 1" d="M616.1,454.148v1.426a12.16,12.16,0,0,0-3.671.534,2.671,2.671,0,0,0-1.675,1.711,12.922,12.922,0,0,0-.428,3.885v35.36a12.966,12.966,0,0,0,.428,3.849,2.568,2.568,0,0,0,1.675,1.711,14.631,14.631,0,0,0,3.671.57v1.426q-1.641-.142-4.1-.178t-4.954-.036q-2.78,0-5.2.036t-3.921.178v-1.426a14.646,14.646,0,0,0,3.671-.57,2.571,2.571,0,0,0,1.676-1.711,12.976,12.976,0,0,0,.428-3.849V457.855l.285.214-17.465,46.908h-1.141l-17.965-46.266v37.64a13.831,13.831,0,0,0,.463,4.028,3.21,3.21,0,0,0,1.853,2.067,12.572,12.572,0,0,0,4.17.749v1.426q-1.283-.142-3.351-.178t-3.921-.036q-1.783,0-3.6.036t-3.03.178v-1.426a10.066,10.066,0,0,0,3.671-.749,3.156,3.156,0,0,0,1.675-2.067,14.951,14.951,0,0,0,.428-4.028V461.7a12.934,12.934,0,0,0-.428-3.885,2.674,2.674,0,0,0-1.675-1.711,12.174,12.174,0,0,0-3.671-.534v-1.426q1.211.072,3.03.143t3.6.071q1.567,0,3.243-.071t2.816-.143l16.182,42.631-1.212.57,16.04-42.987h3.351q2.494,0,4.954-.071T616.1,454.148Z" transform="translate(0 -24.172)" fill="#fff"/>
    <path id="Trazado_2" data-name="Trazado 2" d="M1038.463,500.613a12.492,12.492,0,0,1,4.527.713,8.237,8.237,0,0,1,3.03,2,8.117,8.117,0,0,1,1.925,3.564,23.3,23.3,0,0,1,.57,5.774v19.034q0,2.994,1.247,4.063a6.412,6.412,0,0,0,4.17,1.07v1.5q-1.213-.07-3.707-.178t-4.848-.107q-2.353,0-4.6.107t-3.386.178v-1.5a5.036,5.036,0,0,0,3.636-1.07q1.069-1.069,1.069-4.063v-20.6a21.593,21.593,0,0,0-.356-4.063,5.288,5.288,0,0,0-1.6-2.994,5.507,5.507,0,0,0-3.814-1.141,8.555,8.555,0,0,0-7.236,3.743,15.185,15.185,0,0,0-2.744,9.232v15.826q0,2.994,1.069,4.063a5.035,5.035,0,0,0,3.636,1.07v1.5q-1.141-.07-3.386-.178t-4.6-.107q-2.352,0-4.848.107t-3.707.178v-1.5a6.416,6.416,0,0,0,4.171-1.07q1.246-1.069,1.248-4.063V509.382a7.969,7.969,0,0,0-1.141-4.741q-1.141-1.532-4.277-1.533v-1.5q2.281.214,4.42.214a30.071,30.071,0,0,0,3.957-.25,20.03,20.03,0,0,0,3.457-.748v8.412q1.853-4.847,5.168-6.737A13.846,13.846,0,0,1,1038.463,500.613Z" transform="translate(-329.686 -57.876)" fill="#fff"/>
    <path id="Trazado_3" data-name="Trazado 3" d="M1267.868,500.613q6.272,0,9.8,3.716t3.529,11.563h-22.947l-.072-1.32h16.174c.642-6.287-1.382-12.171-6.772-12.64-2.178-.19-4.124,1.066-5.81,3.195s-2.7,5.511-3.03,10.14l.214.278q-.144,1.041-.214,2.292t-.071,2.5a19.28,19.28,0,0,0,1.568,8.126,12.5,12.5,0,0,0,4.1,5.174,9.018,9.018,0,0,0,5.24,1.771,11.84,11.84,0,0,0,5.917-1.528,11.716,11.716,0,0,0,4.563-5.417l1.426.555a14.227,14.227,0,0,1-2.566,4.445,13.682,13.682,0,0,1-4.491,3.507,13.86,13.86,0,0,1-6.274,1.354,16.292,16.292,0,0,1-8.8-2.292,14.981,14.981,0,0,1-5.632-6.355,21.23,21.23,0,0,1-1.961-9.341,25.363,25.363,0,0,1,2-10.522,15.619,15.619,0,0,1,5.632-6.806A15.057,15.057,0,0,1,1267.868,500.613Z" transform="translate(-501.776 -57.876)" fill="#fff"/>
    <g id="Grupo_2" data-name="Grupo 2" transform="translate(642.372 442.031)">
      <g id="Grupo_1" data-name="Grupo 1" transform="translate(4.657 46.352)">
        <path id="Trazado_4" data-name="Trazado 4" d="M881.546,676.133a4.722,4.722,0,1,1,3.275-1.383A4.48,4.48,0,0,1,881.546,676.133Z" transform="translate(-876.889 -666.819)" fill="#fff"/>
      </g>
      <path id="Trazado_5" data-name="Trazado 5" d="M872.012,498.043V529.55q0,3.056,1.273,4.148a6.542,6.542,0,0,0,4.257,1.092v1.528q-1.238-.072-3.747-.182t-5.057-.109q-2.474,0-5.021.109t-3.784.182V534.79a6.546,6.546,0,0,0,4.257-1.092q1.273-1.091,1.274-4.148V506.775a8.135,8.135,0,0,0-1.164-4.839q-1.165-1.564-4.366-1.564v-1.528q2.328.218,4.511.218a30.772,30.772,0,0,0,4.039-.255A20.484,20.484,0,0,0,872.012,498.043Z" transform="translate(-859.933 -498.043)" fill="#fff"/>
      <rect id="Rectángulo_2" data-name="Rectángulo 2" width="8.274" height="2.164" transform="translate(5.177 64.378)" fill="#fff"/>
    </g>
    <g id="Grupo_3" data-name="Grupo 3" transform="translate(634.27 420.824)">
      <path id="Trazado_6" data-name="Trazado 6" d="M838.62,421.916v6.922a3.77,3.77,0,0,1-1.1,2.876,4.238,4.238,0,0,1-3.037,1.047,4.051,4.051,0,0,1-2.989-1.054,3.908,3.908,0,0,1-1.057-2.9v-6.893h1.244V428.9a2.749,2.749,0,0,0,.732,2.056,2.952,2.952,0,0,0,2.151.717,2.847,2.847,0,0,0,2.086-.721,2.774,2.774,0,0,0,.732-2.067v-6.966Z" transform="translate(-830.432 -421.616)" fill="#fff"/>
      <path id="Trazado_7" data-name="Trazado 7" d="M922.309,439.3v-5.188a2.093,2.093,0,0,0-.446-1.464,1.818,1.818,0,0,0-1.4-.483,2.305,2.305,0,0,0-1.844.681,3.436,3.436,0,0,0-.585,2.247V439.3h-1.215v-8.02h.988l.2,1.1h.059a2.478,2.478,0,0,1,1.047-.918,3.4,3.4,0,0,1,1.5-.326,3.046,3.046,0,0,1,2.181.7,2.974,2.974,0,0,1,.732,2.236V439.3Z" transform="translate(-893.095 -428.303)" fill="#fff"/>
      <path id="Trazado_8" data-name="Trazado 8" d="M996.869,421.629a.806.806,0,0,1,.205-.611.758.758,0,0,1,1.017,0,.793.793,0,0,1,.212.607.806.806,0,0,1-.212.611.709.709,0,0,1-.5.2.7.7,0,0,1-.512-.2A.821.821,0,0,1,996.869,421.629Zm1.317,10.193h-1.215V423.8h1.215Z" transform="translate(-951.16 -420.824)" fill="#fff"/>
      <path id="Trazado_9" data-name="Trazado 9" d="M1059.64,439.448a2.926,2.926,0,0,1-2.422-1.091,4.759,4.759,0,0,1-.871-3.044,4.821,4.821,0,0,1,.878-3.073,3.226,3.226,0,0,1,4.976.139h.066l.176-1.1h.958V442.9h-1.215V439.47a8.2,8.2,0,0,1,.08-1.244h-.095A2.869,2.869,0,0,1,1059.64,439.448Zm.183-1.017a2.207,2.207,0,0,0,1.771-.651,3.528,3.528,0,0,0,.593-2.2v-.271a4.009,4.009,0,0,0-.571-2.422,2.14,2.14,0,0,0-1.807-.739,1.859,1.859,0,0,0-1.635.831,4.129,4.129,0,0,0-.567,2.345,3.987,3.987,0,0,0,.56,2.309A1.9,1.9,0,0,0,1059.823,438.431Z" transform="translate(-994.303 -428.303)" fill="#fff"/>
      <path id="Trazado_10" data-name="Trazado 10" d="M1139.25,431.668v5.2a2.093,2.093,0,0,0,.446,1.464,1.818,1.818,0,0,0,1.4.483,2.28,2.28,0,0,0,1.84-.688,3.47,3.47,0,0,0,.582-2.246v-4.215h1.215v8.02h-1l-.176-1.076h-.066a2.422,2.422,0,0,1-1.035.907,3.48,3.48,0,0,1-1.511.315,3.065,3.065,0,0,1-2.192-.7,2.958,2.958,0,0,1-.728-2.225v-5.247Z" transform="translate(-1053.546 -428.69)" fill="#fff"/>
      <path id="Trazado_11" data-name="Trazado 11" d="M1220.97,439.448a3.684,3.684,0,0,1-2.806-1.083,4.192,4.192,0,0,1-1.028-3.008,4.65,4.65,0,0,1,.955-3.081,3.172,3.172,0,0,1,2.565-1.142,3.024,3.024,0,0,1,2.385.992,3.8,3.8,0,0,1,.878,2.616v.768h-5.525a3.18,3.18,0,0,0,.714,2.144,2.467,2.467,0,0,0,1.906.732,6.457,6.457,0,0,0,2.561-.542v1.083a6.425,6.425,0,0,1-1.218.4A6.848,6.848,0,0,1,1220.97,439.448Zm-.329-7.3a1.984,1.984,0,0,0-1.54.629,2.9,2.9,0,0,0-.677,1.742h4.193a2.671,2.671,0,0,0-.512-1.76A1.8,1.8,0,0,0,1220.641,432.152Z" transform="translate(-1110.934 -428.303)" fill="#fff"/>
    </g>
  </g>
</svg>
