<svg xmlns="http://www.w3.org/2000/svg" width="55.852" height="65.19" viewBox="0 0 55.852 65.19">
  <g id="logo-unique-menu" transform="translate(0 0)">
    <path id="Trazado_1" data-name="Trazado 1" d="M615.852,454.148v1.371a12.506,12.506,0,0,0-3.655.514,2.612,2.612,0,0,0-1.668,1.645,12.017,12.017,0,0,0-.426,3.735V495.4a12.058,12.058,0,0,0,.426,3.7,2.512,2.512,0,0,0,1.668,1.645,15.039,15.039,0,0,0,3.655.548v1.371q-1.633-.137-4.081-.171t-4.932-.034q-2.768,0-5.181.034t-3.9.171V501.3a15.054,15.054,0,0,0,3.655-.548,2.515,2.515,0,0,0,1.668-1.645,12.069,12.069,0,0,0,.426-3.7V457.711l.284.206L586.4,503.008h-1.135l-17.884-44.475v36.183a12.864,12.864,0,0,0,.461,3.872,3.126,3.126,0,0,0,1.845,1.987,12.909,12.909,0,0,0,4.152.72v1.371q-1.278-.137-3.336-.171t-3.9-.034q-1.775,0-3.584.034t-3.016.171V501.3a10.326,10.326,0,0,0,3.655-.72,3.059,3.059,0,0,0,1.668-1.987,13.9,13.9,0,0,0,.426-3.872v-33.3a12.026,12.026,0,0,0-.426-3.735,2.614,2.614,0,0,0-1.668-1.645,12.519,12.519,0,0,0-3.655-.514v-1.371q1.206.069,3.016.137t3.584.069q1.56,0,3.229-.069t2.8-.137l16.11,40.98-1.206.548L603.5,454.354h3.336q2.483,0,4.932-.069T615.852,454.148Z" transform="translate(-560 -454.148)" fill="#1a1818"/>
    <g id="Grupo_2" data-name="Grupo 2" transform="translate(22.362 62.154)">
      <rect id="Rectángulo_2" data-name="Rectángulo 2" width="10.99" height="3.036" transform="translate(0 0)" fill="#1a1818"/>
    </g>
  </g>
</svg>
