<svg xmlns="http://www.w3.org/2000/svg" width="512.708" height="204.77" viewBox="0 0 512.708 204.77">
  <g id="logo-unique-seccion-1" transform="translate(-560 -420.824)">
    <path id="Trazado_1" data-name="Trazado 1" d="M690.923,454.148v3.327a28.379,28.379,0,0,0-8.567,1.247,6.234,6.234,0,0,0-3.909,3.993,30.153,30.153,0,0,0-1,9.067V554.3a30.256,30.256,0,0,0,1,8.983,5.992,5.992,0,0,0,3.909,3.993,34.143,34.143,0,0,0,8.567,1.331v3.327q-3.829-.332-9.566-.416t-11.562-.083q-6.488,0-12.144.083t-9.15.416V568.6a34.179,34.179,0,0,0,8.567-1.331,6,6,0,0,0,3.91-3.993,30.283,30.283,0,0,0,1-8.983V462.8l.665.5L621.885,572.762h-2.662L577.3,464.795v87.837a32.275,32.275,0,0,0,1.081,9.4,7.491,7.491,0,0,0,4.325,4.824q3.244,1.415,9.732,1.747v3.327q-2.995-.332-7.819-.416t-9.149-.083q-4.161,0-8.4.083t-7.07.416V568.6a23.49,23.49,0,0,0,8.567-1.747,7.364,7.364,0,0,0,3.909-4.824,34.886,34.886,0,0,0,1-9.4v-80.85a30.18,30.18,0,0,0-1-9.067,6.239,6.239,0,0,0-3.909-3.993A28.409,28.409,0,0,0,560,457.475v-3.327q2.826.167,7.07.333t8.4.167q3.657,0,7.569-.167t6.571-.333l37.763,99.483-2.828,1.331,37.43-100.315H669.8q5.821,0,11.562-.167T690.923,454.148Z" transform="translate(0 -11.967)" fill="#1a1818"/>
    <path id="Trazado_2" data-name="Trazado 2" d="M1070.406,500.613a29.152,29.152,0,0,1,10.564,1.663,19.224,19.224,0,0,1,7.07,4.658,18.945,18.945,0,0,1,4.492,8.318,54.387,54.387,0,0,1,1.331,13.475v44.418q0,6.987,2.911,9.482t9.732,2.5v3.493q-2.83-.164-8.651-.416t-11.312-.25q-5.49,0-10.73.25t-7.9.416v-3.493q5.989,0,8.485-2.5t2.495-9.482V525.067a50.394,50.394,0,0,0-.832-9.483,12.34,12.34,0,0,0-3.743-6.987q-2.913-2.659-8.9-2.662-10.481,0-16.885,8.734t-6.4,21.543v36.932q0,6.987,2.5,9.482t8.484,2.5v3.493q-2.663-.164-7.9-.416t-10.73-.25q-5.489,0-11.312.25t-8.651.416v-3.493q6.82,0,9.732-2.5t2.912-9.482v-52.07q0-7.487-2.662-11.064t-9.982-3.577v-3.493q5.322.5,10.314.5a70.176,70.176,0,0,0,9.233-.583,46.731,46.731,0,0,0,8.068-1.746v19.63q4.324-11.311,12.061-15.721A32.309,32.309,0,0,1,1070.406,500.613Z" transform="translate(-163.221 -28.653)" fill="#1a1818"/>
    <path id="Trazado_3" data-name="Trazado 3" d="M1289.354,500.613q14.637,0,22.874,8.671t8.235,26.984h-53.548l-.167-3.079h37.744c1.5-14.671-3.226-28.4-15.8-29.5-5.083-.443-9.623,2.487-13.559,7.455s-6.3,12.859-7.07,23.662l.5.649q-.336,2.43-.5,5.348t-.165,5.835q0,11.023,3.659,18.963a29.181,29.181,0,0,0,9.567,12.074,21.045,21.045,0,0,0,12.227,4.133,27.63,27.63,0,0,0,13.808-3.566q6.32-3.563,10.647-12.641l3.327,1.3a33.2,33.2,0,0,1-5.988,10.373,31.932,31.932,0,0,1-10.481,8.185,32.342,32.342,0,0,1-14.64,3.16q-11.978,0-20.545-5.348a34.959,34.959,0,0,1-13.142-14.83,49.542,49.542,0,0,1-4.575-21.8q0-14.26,4.659-24.554a36.447,36.447,0,0,1,13.142-15.883A35.137,35.137,0,0,1,1289.354,500.613Z" transform="translate(-248.42 -28.653)" fill="#1a1818"/>
    <g id="Grupo_2" data-name="Grupo 2" transform="translate(752.223 470.313)">
      <g id="Grupo_1" data-name="Grupo 1" transform="translate(10.867 108.166)">
        <path id="Trazado_4" data-name="Trazado 4" d="M887.756,688.555a11.018,11.018,0,1,1,7.642-3.227A10.453,10.453,0,0,1,887.756,688.555Z" transform="translate(-876.889 -666.819)" fill="#1a1818"/>
      </g>
      <path id="Trazado_5" data-name="Trazado 5" d="M888.12,498.043v73.526q0,7.132,2.971,9.679t9.934,2.548v3.565q-2.889-.167-8.745-.425t-11.8-.254q-5.774,0-11.716.254t-8.83.425V583.8q6.96,0,9.933-2.548t2.972-9.679V518.419q0-7.64-2.717-11.292t-10.188-3.65v-3.566q5.432.51,10.528.509a71.809,71.809,0,0,0,9.424-.594A47.794,47.794,0,0,0,888.12,498.043Z" transform="translate(-859.933 -498.043)" fill="#1a1818"/>
      <rect id="Rectángulo_2" data-name="Rectángulo 2" width="19.307" height="5.05" transform="translate(12.081 150.232)" fill="#1a1818"/>
    </g>
    <g id="Grupo_3" data-name="Grupo 3" transform="translate(733.316 420.824)">
      <path id="Trazado_6" data-name="Trazado 6" d="M849.54,421.916V438.07a8.8,8.8,0,0,1-2.578,6.711,9.891,9.891,0,0,1-7.087,2.442,9.453,9.453,0,0,1-6.975-2.459A9.12,9.12,0,0,1,830.432,438V421.916h2.9v16.291a6.414,6.414,0,0,0,1.708,4.8,6.889,6.889,0,0,0,5.02,1.673A6.643,6.643,0,0,0,844.929,443a6.472,6.472,0,0,0,1.707-4.824V421.916Z" transform="translate(-830.432 -421.216)" fill="#1a1818"/>
      <path id="Trazado_7" data-name="Trazado 7" d="M929.628,450.192V438.085a4.885,4.885,0,0,0-1.042-3.415,4.242,4.242,0,0,0-3.261-1.127,5.38,5.38,0,0,0-4.3,1.588q-1.366,1.588-1.366,5.242v9.819h-2.835V431.477h2.305l.461,2.562h.136a5.784,5.784,0,0,1,2.443-2.143,7.926,7.926,0,0,1,3.5-.76,7.108,7.108,0,0,1,5.089,1.631q1.707,1.63,1.707,5.217v12.209Z" transform="translate(-861.456 -424.527)" fill="#1a1818"/>
      <path id="Trazado_8" data-name="Trazado 8" d="M996.869,422.7a1.881,1.881,0,0,1,.479-1.426,1.77,1.77,0,0,1,2.373.008,1.85,1.85,0,0,1,.5,1.418,1.88,1.88,0,0,1-.5,1.426,1.654,1.654,0,0,1-1.178.469,1.638,1.638,0,0,1-1.2-.469A1.918,1.918,0,0,1,996.869,422.7Zm3.074,23.787h-2.835V427.774h2.835Z" transform="translate(-890.202 -420.824)" fill="#1a1818"/>
      <path id="Trazado_9" data-name="Trazado 9" d="M1064.031,450.534a6.828,6.828,0,0,1-5.652-2.545,11.107,11.107,0,0,1-2.032-7.1,11.25,11.25,0,0,1,2.049-7.172,7.528,7.528,0,0,1,11.612.324h.153l.41-2.562h2.237v27.117h-2.835v-8.009a19.114,19.114,0,0,1,.188-2.9h-.222A6.7,6.7,0,0,1,1064.031,450.534Zm.427-2.374a5.151,5.151,0,0,0,4.132-1.52q1.3-1.52,1.383-5.123v-.632q0-3.927-1.332-5.652a4.993,4.993,0,0,0-4.218-1.725,4.338,4.338,0,0,0-3.816,1.938,9.636,9.636,0,0,0-1.323,5.473,9.3,9.3,0,0,0,1.306,5.387A4.427,4.427,0,0,0,1064.458,448.16Z" transform="translate(-911.561 -424.527)" fill="#1a1818"/>
      <path id="Trazado_10" data-name="Trazado 10" d="M1140.889,431.668v12.141a4.882,4.882,0,0,0,1.042,3.415,4.242,4.242,0,0,0,3.261,1.127,5.321,5.321,0,0,0,4.295-1.605q1.357-1.6,1.358-5.242v-9.836h2.835v18.716h-2.34l-.41-2.51h-.154a5.653,5.653,0,0,1-2.416,2.117,8.122,8.122,0,0,1-3.526.734,7.152,7.152,0,0,1-5.114-1.623q-1.7-1.622-1.7-5.191V431.668Z" transform="translate(-940.891 -424.718)" fill="#1a1818"/>
      <path id="Trazado_11" data-name="Trazado 11" d="M1226.084,450.534a8.6,8.6,0,0,1-6.549-2.528,9.783,9.783,0,0,1-2.4-7.018,10.851,10.851,0,0,1,2.228-7.189,7.4,7.4,0,0,1,5.985-2.664,7.057,7.057,0,0,1,5.567,2.314,8.865,8.865,0,0,1,2.05,6.1v1.793h-12.893a7.42,7.42,0,0,0,1.665,5,5.758,5.758,0,0,0,4.448,1.707,15.067,15.067,0,0,0,5.976-1.264v2.528a15,15,0,0,1-2.843.931A15.979,15.979,0,0,1,1226.084,450.534Zm-.768-17.025a4.631,4.631,0,0,0-3.595,1.468,6.773,6.773,0,0,0-1.58,4.064h9.785a6.234,6.234,0,0,0-1.2-4.107A4.207,4.207,0,0,0,1225.316,433.509Z" transform="translate(-969.303 -424.527)" fill="#1a1818"/>
    </g>
  </g>
</svg>
