<svg xmlns="http://www.w3.org/2000/svg" xmlns:xlink="http://www.w3.org/1999/xlink" width="301" height="487" viewBox="0 0 301 487">
  <defs>
    <clipPath id="clip-path">
      <rect id="Rect치ngulo_107" data-name="Rect치ngulo 107" width="301" height="487" transform="translate(1065 1648)" fill="#fff"/>
    </clipPath>
  </defs>
  <g id="m-unique" transform="translate(-1065 -1648)" clip-path="url(#clip-path)">
    <g id="Grupo_87" data-name="Grupo 87" transform="translate(-1729.242 8.184)">
      <g id="Grupo_69" data-name="Grupo 69" transform="translate(2956.208 2097.315)">
        <rect id="Rect치ngulo_38" data-name="Rect치ngulo 38" width="85.918" height="22.473"/>
      </g>
      <path id="Trazado_319" data-name="Trazado 319" d="M3179.093,1663.816v9.146q-15.55.46-23.549,3.429a17.135,17.135,0,0,0-10.745,10.973q-2.744,8.007-2.743,24.921v226.8q0,16.46,2.743,24.689a16.47,16.47,0,0,0,10.745,10.976q7.994,2.742,23.549,3.656v9.146q-10.525-.912-26.293-1.144t-31.778-.229q-17.834,0-33.379.229t-25.148,1.144V1978.4q15.539-.91,23.548-3.656a16.489,16.489,0,0,0,10.746-10.976q2.742-8.227,2.742-24.689V1687.594l1.83,1.371-112.025,300.867h-7.315L2866.8,1693.08v241.427q0,16.462,2.971,25.835a20.593,20.593,0,0,0,11.889,13.26q8.916,3.889,26.748,4.8v9.146q-8.229-.912-21.489-1.144t-25.148-.229q-11.435,0-23.092.229t-19.432,1.144V1978.4q15.539-.91,23.547-4.8t10.746-13.26q2.744-9.367,2.744-25.835V1712.286q0-16.912-2.744-24.921a17.152,17.152,0,0,0-10.746-10.973q-8-2.968-23.547-3.429v-9.146q7.769.461,19.432.916t23.092.458q10.05,0,20.8-.458t18.061-.916l103.794,273.434-7.772,3.659,102.878-275.72h21.491q16,0,31.778-.458T3179.093,1663.816Z" transform="translate(0 0)"/>
    </g>
  </g>
</svg>
