<svg xmlns="http://www.w3.org/2000/svg" width="55.236" height="208.73" viewBox="0 0 55.236 208.73">
  <g id="unique-simbolo-blanco" transform="translate(-752.223 -470.313)">
    <g id="Grupo_2" data-name="Grupo 2" transform="translate(752.223 470.313)">
      <g id="Grupo_1" data-name="Grupo 1" transform="translate(14.607 145.396)">
        <path id="Trazado_4" data-name="Trazado 4" d="M891.5,696.036a14.811,14.811,0,1,1,10.272-4.337A14.052,14.052,0,0,1,891.5,696.036Z" transform="translate(-876.889 -666.819)" fill="#fff"/>
      </g>
      <path id="Trazado_5" data-name="Trazado 5" d="M897.822,498.043v98.833q0,9.587,3.994,13.01t13.353,3.425V618.1q-3.883-.225-11.755-.571t-15.864-.342q-7.761,0-15.749.342t-11.869.571v-4.792q9.356,0,13.352-3.425t3.995-13.01V525.433q0-10.269-3.652-15.178t-13.695-4.907v-4.793q7.3.685,14.151.685a96.523,96.523,0,0,0,12.668-.8A64.246,64.246,0,0,0,897.822,498.043Z" transform="translate(-859.933 -498.043)" fill="#fff"/>
      <rect id="Rectángulo_2" data-name="Rectángulo 2" width="25.953" height="6.788" transform="translate(16.239 201.941)" fill="#fff"/>
    </g>
  </g>
</svg>
