<svg xmlns="http://www.w3.org/2000/svg" width="42.984" height="162.429" viewBox="0 0 42.984 162.429">
  <g id="unique-simbolo" transform="translate(-496.238 -1488.194)">
    <g id="Grupo_78" data-name="Grupo 78" transform="translate(507.605 1601.339)">
      <path id="Trazado_320" data-name="Trazado 320" d="M555.265,1985.323a11.526,11.526,0,1,1,7.994-3.375A10.934,10.934,0,0,1,555.265,1985.323Z" transform="translate(-543.897 -1962.587)"/>
    </g>
    <path id="Trazado_321" data-name="Trazado 321" d="M525.723,1488.194V1565.1q0,7.461,3.108,10.125t10.391,2.665v3.73q-3.022-.175-9.148-.444t-12.345-.266q-6.04,0-12.255.266t-9.236.444v-3.73q7.281,0,10.391-2.665t3.109-10.125v-55.6q0-7.992-2.842-11.812t-10.657-3.819v-3.73q5.682.532,11.013.533a75.081,75.081,0,0,0,9.858-.621A50,50,0,0,0,525.723,1488.194Z" transform="translate(0)"/>
    <rect id="Rectángulo_42" data-name="Rectángulo 42" width="20.196" height="5.283" transform="translate(508.875 1645.341)"/>
  </g>
</svg>
